<svg width="556" height="556" viewBox="0 0 556 556" fill="none" xmlns="http://www.w3.org/2000/svg">
<g clip-path="url(#clip0_1:2)">
<path d="M211.82 123.961L217.782 109.652H335.833V123.961H371.606L377.569 144.233H391.878V164.504H410.957V183.583L453.885 189.545V228.896H478.926V265.861L494.427 271.824V380.335H478.926L467.001 428.033H453.885L447.922 444.727H410.957V485.27H371.606V504.349L335.995 506.08L333.827 542.942H296.965L294.178 506.08H257.316L255.457 539.042H220.875L215.498 507.629L177.239 504.349V485.27H140.273V463.806H120.002V444.727H96.1532V428.033H77.0742V380.335H61.5725V265.861H84.2288V228.896H102.115V189.545H120.002V170.466H140.273V144.233H177.239V129.923L211.82 123.961Z" fill="#C5E1E7"/>
<path d="M347.387 197.248V177.423H208.613V197.248H168.964V217.072H149.139V236.897H129.314V256.722H109.49V296.371H89.6648V336.021H109.49V355.846H129.314V375.67H149.139V395.495H188.789V415.32H387.036V395.495H426.686V375.67H446.51V355.846H466.335V296.371H446.51V256.722H426.686V217.072H387.036V197.248H347.387Z" fill="black"/>
<path d="M255.697 384.963H300.303V365.139H315.171V345.314L300.303 345.314V329.386H255.697V345.314L240.829 345.314V365.139H255.697V384.963Z" fill="white"/>
<path fill-rule="evenodd" clip-rule="evenodd" d="M347.387 98.1238V117.949H387.036V137.773H406.861V157.598H426.686V177.423H466.335V217.072H486.16V256.722H505.985V395.495H486.16V435.145H466.335V454.97H446.51V474.794H426.686V494.619H387.036V514.444H168.964V494.619H129.314V474.794H109.49V454.97H89.6648V435.145H69.84V395.495H50.0152V256.722H69.84V217.072H89.6648V177.423H109.49V157.598H129.314V137.773H168.964V117.949H208.613V98.1238H347.387ZM327.562 117.949V137.773H367.211V157.598H387.036V177.423H406.861V197.248H446.51V236.897H466.335V276.547H486.16V375.671H466.335V415.32H446.51V435.145H426.686V454.97H406.861V474.794H367.211V494.619H188.789V474.794H149.139V454.97H129.314V435.145H109.49V415.32H89.6648V375.671H69.84V276.547H89.6648V236.897H109.49V197.248H129.314V177.423H149.139V157.598H188.789V137.773H228.438V117.949H327.562Z" fill="black"/>
<path d="M287.912 98.1238V78.2991H268.088V38.6495H248.263V-1H208.613V38.6495H248.263V78.2991H268.088V98.1238H287.912Z" fill="black"/>
<path fill-rule="evenodd" clip-rule="evenodd" d="M268.707 494.619H209.233V554.093H268.707V494.619ZM229.058 514.444H248.882V534.269H229.058V514.444Z" fill="black"/>
<path fill-rule="evenodd" clip-rule="evenodd" d="M346.767 494.619H287.293V554.093H346.767V494.619ZM307.118 514.444H326.942V534.269H307.118V514.444Z" fill="black"/>
<path fill-rule="evenodd" clip-rule="evenodd" d="M416.773 395.495H357.299V454.97H416.773V395.495ZM377.124 415.32H396.949V435.145H377.124V415.32Z" fill="black"/>
<path fill-rule="evenodd" clip-rule="evenodd" d="M198.701 395.495H139.227V454.97H198.701V395.495ZM159.051 415.32H178.876V435.145H159.051V415.32Z" fill="black"/>
<path d="M258.175 263.846H297.825V303.496H258.175V263.846Z" fill="white"/>
<path d="M240.829 229.153H315.171V303.496H240.829V229.153Z" fill="white"/>
<path d="M263.681 252.006H292.319V280.643H263.681V252.006Z" fill="black"/>
<path fill-rule="evenodd" clip-rule="evenodd" d="M339.304 3.52496V73.8788H313.284V3.52496H339.304ZM453.902 58.5515L418.129 111.019L396.63 96.3608L432.403 43.8935L453.902 58.5515ZM123.71 44.0629L158.291 96.5302L136.565 110.849L101.985 58.3821L123.71 44.0629Z" fill="black"/>
</g>
<defs>
<clipPath id="clip0_1:2">
<rect width="556" height="556" fill="white" transform="matrix(-1 0 0 1 556 0)"/>
</clipPath>
</defs>
</svg>
